<svg width="34" height="34" viewBox="0 0 34 34" fill="none" xmlns="http://www.w3.org/2000/svg">
<path fill-rule="evenodd" clip-rule="evenodd" d="M17 3.89648C13.6747 3.89648 10.9791 6.5921 10.9791 9.91732C10.9791 13.2425 13.6747 15.9382 17 15.9382C20.3252 15.9382 23.0208 13.2425 23.0208 9.91732C23.0208 6.5921 20.3252 3.89648 17 3.89648ZM8.85413 9.91732C8.85413 5.4185 12.5011 1.77148 17 1.77148C21.4988 1.77148 25.1458 5.4185 25.1458 9.91732C25.1458 14.4161 21.4988 18.0632 17 18.0632C12.5011 18.0632 8.85413 14.4161 8.85413 9.91732Z" fill="#EC7700"/>
<path fill-rule="evenodd" clip-rule="evenodd" d="M3.76831 31.1667C3.76831 24.9038 9.91257 20.1875 17 20.1875C24.0874 20.1875 30.2316 24.9038 30.2316 31.1667C30.2316 31.7535 29.7559 32.2292 29.1691 32.2292C28.5823 32.2292 28.1066 31.7535 28.1066 31.1667C28.1066 26.4645 23.3426 22.3125 17 22.3125C10.6574 22.3125 5.89331 26.4645 5.89331 31.1667C5.89331 31.7535 5.41761 32.2292 4.83081 32.2292C4.24401 32.2292 3.76831 31.7535 3.76831 31.1667Z" fill="#EC7700"/>
</svg>
