<svg  viewBox="0 0 73 73" fill="none" xmlns="http://www.w3.org/2000/svg">
<path d="M0 36.5071C20.1641 36.5071 36.5001 20.1747 36.5001 0.0148926H0V36.5071Z" fill="#EC7700"/>
<path d="M36.5001 73.0001C36.5001 52.8402 20.1641 36.5078 0 36.5078V73.0001H36.5001Z" fill="#270089"/>
<path d="M73.0001 36.5078C52.8359 36.5078 36.5 52.8402 36.5 73.0001H73.0001V36.5078Z" fill="#270089"/>
<path d="M47.0709 25.5368C47.1949 25.6763 47.3344 25.8003 47.4583 25.9242C56.9282 35.2526 72.9851 28.4035 72.9851 15.1083V15.0463C72.9851 6.74061 66.2431 0 57.9356 0H57.8736C44.5755 0 37.725 16.0535 47.0554 25.5213L47.0709 25.5368Z" fill="#270089"/>
</svg>
