<svg width="25" height="24" viewBox="0 0 25 24" fill="none" xmlns="http://www.w3.org/2000/svg">
<path d="M17.667 2.42993H7.66699C4.66699 2.42993 2.66699 4.42993 2.66699 7.42993V13.4299C2.66699 16.4299 4.66699 18.4299 7.66699 18.4299V20.5599C7.66699 21.3599 8.55699 21.8399 9.21699 21.3899L13.667 18.4299H17.667C20.667 18.4299 22.667 16.4299 22.667 13.4299V7.42993C22.667 4.42993 20.667 2.42993 17.667 2.42993ZM12.667 14.5999C12.247 14.5999 11.917 14.2599 11.917 13.8499C11.917 13.4399 12.247 13.0999 12.667 13.0999C13.087 13.0999 13.417 13.4399 13.417 13.8499C13.417 14.2599 13.087 14.5999 12.667 14.5999ZM13.927 10.4499C13.537 10.7099 13.417 10.8799 13.417 11.1599V11.3699C13.417 11.7799 13.077 12.1199 12.667 12.1199C12.257 12.1199 11.917 11.7799 11.917 11.3699V11.1599C11.917 9.99993 12.767 9.42993 13.087 9.20993C13.457 8.95993 13.577 8.78993 13.577 8.52993C13.577 8.02993 13.167 7.61993 12.667 7.61993C12.167 7.61993 11.757 8.02993 11.757 8.52993C11.757 8.93993 11.417 9.27993 11.007 9.27993C10.597 9.27993 10.257 8.93993 10.257 8.52993C10.257 7.19993 11.337 6.11993 12.667 6.11993C13.997 6.11993 15.077 7.19993 15.077 8.52993C15.077 9.66993 14.237 10.2399 13.927 10.4499Z" fill="#979797"/>
</svg>
