<svg width="18" height="18" viewBox="0 0 18 18" fill="none" xmlns="http://www.w3.org/2000/svg">
<path fill-rule="evenodd" clip-rule="evenodd" d="M6 9C6 9.62132 5.49632 10.125 4.875 10.125C4.25368 10.125 3.75 9.62132 3.75 9C3.75 8.37868 4.25368 7.875 4.875 7.875C5.49632 7.875 6 8.37868 6 9ZM10.5 9C10.5 9.62132 9.99632 10.125 9.375 10.125C8.75368 10.125 8.25 9.62132 8.25 9C8.25 8.37868 8.75368 7.875 9.375 7.875C9.99632 7.875 10.5 8.37868 10.5 9ZM13.875 10.125C14.4963 10.125 15 9.62132 15 9C15 8.37868 14.4963 7.875 13.875 7.875C13.2537 7.875 12.75 8.37868 12.75 9C12.75 9.62132 13.2537 10.125 13.875 10.125Z" fill="#6D6D6D"/>
</svg>
