<svg width="24" height="24" viewBox="0 0 24 24" fill="none" xmlns="http://www.w3.org/2000/svg">
<path d="M20.25 11.249L3.75 11.249C3.55109 11.249 3.36032 11.328 3.21967 11.4687C3.07902 11.6093 3 11.8001 3 11.999C3 12.1979 3.07902 12.3887 3.21967 12.5294C3.36032 12.67 3.55109 12.749 3.75 12.749H20.25C20.4489 12.749 20.6397 12.67 20.7803 12.5294C20.921 12.3887 21 12.1979 21 11.999C21 11.8001 20.921 11.6093 20.7803 11.4687C20.6397 11.328 20.4489 11.249 20.25 11.249Z" fill="#6D6D6D"/>
<path d="M3.75 6.74902H20.25C20.4489 6.74902 20.6397 6.67001 20.7803 6.52935C20.921 6.3887 21 6.19794 21 5.99902C21 5.80011 20.921 5.60935 20.7803 5.46869C20.6397 5.32804 20.4489 5.24902 20.25 5.24902L3.75 5.24902C3.55109 5.24902 3.36032 5.32804 3.21967 5.46869C3.07902 5.60935 3 5.80011 3 5.99902C3 6.19794 3.07902 6.3887 3.21967 6.52935C3.36032 6.67001 3.55109 6.74902 3.75 6.74902Z" fill="#6D6D6D"/>
<path d="M20.25 17.249L3.75 17.249C3.55109 17.249 3.36032 17.328 3.21967 17.4687C3.07902 17.6093 3 17.8001 3 17.999C3 18.1979 3.07902 18.3887 3.21967 18.5294C3.36032 18.67 3.55109 18.749 3.75 18.749H20.25C20.4489 18.749 20.6397 18.67 20.7803 18.5294C20.921 18.3887 21 18.1979 21 17.999C21 17.8001 20.921 17.6093 20.7803 17.4687C20.6397 17.328 20.4489 17.249 20.25 17.249Z" fill="#6D6D6D"/>
</svg>
