<svg width="18" height="18" viewBox="0 0 18 18" fill="none" xmlns="http://www.w3.org/2000/svg">
<path fill-rule="evenodd" clip-rule="evenodd" d="M15.2153 3.93223C15.5071 3.93223 15.75 4.17447 15.75 4.48272V4.76772C15.75 5.06846 15.5071 5.31821 15.2153 5.31821H2.78539C2.49289 5.31821 2.25 5.06846 2.25 4.76772V4.48272C2.25 4.17447 2.49289 3.93223 2.78539 3.93223H4.97217C5.41639 3.93223 5.80298 3.61648 5.90291 3.17098L6.01743 2.65949C6.1954 1.96275 6.78112 1.5 7.45145 1.5H10.5485C11.2116 1.5 11.8039 1.96275 11.9753 2.62274L12.0978 3.17023C12.197 3.61648 12.5836 3.93223 13.0286 3.93223H15.2153ZM14.1044 14.3506C14.3327 12.2229 14.7324 7.16794 14.7324 7.11694C14.747 6.96244 14.6967 6.8162 14.5967 6.69845C14.4895 6.5882 14.3538 6.52295 14.2043 6.52295H3.80141C3.65115 6.52295 3.50819 6.5882 3.40899 6.69845C3.30833 6.8162 3.25873 6.96244 3.26602 7.11694C3.26736 7.12631 3.28171 7.30437 3.30568 7.60205C3.41221 8.92448 3.7089 12.6077 3.90061 14.3506C4.03628 15.6346 4.87876 16.4416 6.09907 16.4708C7.04074 16.4926 8.01086 16.5001 9.00287 16.5001C9.93725 16.5001 10.8862 16.4926 11.8571 16.4708C13.1197 16.4491 13.9614 15.6564 14.1044 14.3506ZM6.64571 12.6593C6.38474 12.9202 6.38474 13.3434 6.64571 13.6043C6.90669 13.8653 7.32981 13.8653 7.59078 13.6043L9 12.1951L10.4092 13.6043C10.6702 13.8653 11.0933 13.8653 11.3543 13.6043C11.6152 13.3433 11.6152 12.9202 11.3543 12.6592L9.94507 11.2501L11.3542 9.8409C11.6152 9.57993 11.6152 9.15681 11.3542 8.89583C11.0932 8.63486 10.6701 8.63486 10.4091 8.89583L9 10.305L7.59082 8.8958C7.32984 8.63483 6.90672 8.63483 6.64575 8.8958C6.38477 9.15678 6.38477 9.5799 6.64575 9.84087L8.05493 11.2501L6.64571 12.6593Z" fill="#E66565"/>
</svg>
