<svg width="100" height="22" viewBox="0 0 100 22" fill="none" xmlns="http://www.w3.org/2000/svg">
<path d="M77.1885 22.0868L86.0256 0.351593H90.9379L99.7701 22.0868H94.8579L88.4793 6.39215L82.1007 22.0868H77.1885Z" fill="#231F20"/>
<path d="M7.79604 12.589C6.71095 11.0556 5.63075 9.4637 4.60431 7.93036L4.54565 7.95966C4.57498 9.5223 4.60431 11.5684 4.60431 13.3703V22.0917H0V0.322296H4.60431L11.0758 9.5223L17.5423 0.322296H22.088V22.0917H17.3028V13.3703C17.3028 11.5684 17.3321 9.5223 17.3615 7.95966L17.3028 7.93036C16.2813 9.4637 15.1962 11.0556 14.1111 12.589L10.9536 17.0669L7.79604 12.589Z" fill="#231F20"/>
<path d="M62.5641 13.3068C61.1515 11.4121 59.8269 9.5809 58.473 7.6862L58.4143 7.7155C58.4436 9.79087 58.473 11.8955 58.473 14.0002V22.0868H53.8687V0.322296H58.385L64.9151 9.10234C66.3277 10.997 67.6523 12.8282 69.0062 14.7229L69.0648 14.6936C69.0355 12.6183 69.0062 10.5136 69.0062 8.40892V0.322296H73.6105V22.0917H69.0942L62.5641 13.3117V13.3068Z" fill="#231F20"/>
<path d="M37.988 0C31.7952 0 26.7705 5.01508 26.7705 11.207C26.7705 17.3989 31.7903 22.414 37.988 22.414C44.1858 22.414 49.2055 17.3989 49.2055 11.207C49.2055 5.01508 44.1809 0 37.988 0ZM37.988 17.8091C34.3368 17.8091 31.3748 14.8499 31.3748 11.2021C31.3748 7.55435 34.3368 4.59512 37.988 4.59512C41.6392 4.59512 44.6012 7.55435 44.6012 11.2021C44.6012 14.8499 41.6392 17.8091 37.988 17.8091Z" fill="#231F20"/>
</svg>
