<svg width="20" height="20" viewBox="0 0 20 20" fill="none" xmlns="http://www.w3.org/2000/svg">
<path fill-rule="evenodd" clip-rule="evenodd" d="M14.2423 0.107422C12.7438 0.107422 11.3067 0.702659 10.2471 1.7622L7.59528 4.41405C7.37987 4.62979 7.25892 4.92222 7.25903 5.22709C7.25914 5.53195 7.3803 5.8243 7.59588 6.03988C7.81145 6.25545 8.1038 6.37661 8.40866 6.37672C8.71353 6.37683 9.00617 6.25568 9.2219 6.04026L11.8735 3.38862C12.5018 2.76078 13.3538 2.40815 14.242 2.40829C15.1303 2.40843 15.9821 2.76136 16.6102 3.38946C17.2383 4.01757 17.5912 4.86941 17.5914 5.75768C17.5915 6.64591 17.2388 7.49793 16.611 8.12622L13.9592 10.778C13.7438 10.9937 13.6228 11.2861 13.623 11.591C13.6231 11.8959 13.7442 12.1882 13.9598 12.4038C14.1754 12.6194 14.4677 12.7405 14.7726 12.7406C15.0775 12.7408 15.3701 12.6196 15.5858 12.4042L18.2378 9.75222C19.2957 8.69188 19.8898 7.25521 19.8898 5.75737C19.8898 4.25954 19.2954 2.82254 18.2375 1.7622C17.1779 0.702659 15.7408 0.107422 14.2423 0.107422ZM7.63065 13.9948L13.9944 7.63109C14.1012 7.52437 14.1862 7.39745 14.244 7.25797C14.3019 7.11841 14.3318 6.96881 14.3318 6.81771C14.3319 6.66661 14.3021 6.51698 14.2443 6.37738C14.1865 6.23777 14.1018 6.11092 13.995 6.00408C13.8881 5.89723 13.7613 5.81249 13.6217 5.7547C13.4821 5.6969 13.3324 5.66718 13.1813 5.66724C13.0302 5.66729 12.8806 5.69712 12.7411 5.75502C12.6015 5.81292 12.4747 5.89775 12.368 6.00467L6.00403 12.3686C5.78862 12.5843 5.66767 12.8768 5.66779 13.1816C5.6679 13.4865 5.78905 13.7788 6.00463 13.9944C6.2202 14.21 6.51255 14.3311 6.81741 14.3313C7.12228 14.3314 7.41492 14.2102 7.63065 13.9948ZM1.91259 10.0965C0.85305 11.1561 0.257812 12.5932 0.257812 14.0917C0.257812 15.5901 0.85305 17.0272 1.91259 18.0868C2.97293 19.1447 4.40993 19.7392 5.90777 19.7392C7.4056 19.7392 8.84227 19.1451 9.90261 18.0872L12.5546 15.4352C12.77 15.2195 12.8911 14.9268 12.891 14.622C12.8909 14.3171 12.7698 14.0247 12.5542 13.8092C12.3386 13.5936 12.0463 13.4724 11.7414 13.4723C11.4365 13.4722 11.1441 13.5932 10.9284 13.8086L8.27661 16.4603C7.64832 17.0882 6.7963 17.4409 5.90808 17.4407C5.0198 17.4406 4.16796 17.0877 3.53985 16.4596C2.91175 15.8315 2.55882 14.9796 2.55868 14.0914C2.55854 13.2031 2.91117 12.3512 3.53901 11.7229L6.19065 9.07127C6.40607 8.85554 6.52722 8.56289 6.52711 8.25803C6.527 7.95316 6.40584 7.66081 6.19027 7.44524C5.97469 7.22967 5.68234 7.10851 5.37748 7.1084C5.07261 7.10829 4.78018 7.22923 4.56445 7.44465L1.91259 10.0965Z" fill="#6D6D6D"/>
</svg>
