<svg width="24" height="24" viewBox="0 0 24 24" fill="none" xmlns="http://www.w3.org/2000/svg">
<path d="M11.9302 3C6.49259 3 2.10742 6.50809 2.10742 10.767C2.10742 13.5314 3.93165 15.952 6.66799 17.3342L5.74185 20.7932C5.72439 20.8451 5.7217 20.9007 5.73409 20.954C5.74648 21.0073 5.77346 21.0561 5.81201 21.0949C5.86822 21.1445 5.94054 21.1719 6.01548 21.1721C6.07762 21.1671 6.13657 21.1425 6.18387 21.1019L10.1691 18.4147C10.7574 18.4959 11.3504 18.5381 11.9442 18.541C17.3748 18.541 21.767 15.0329 21.767 10.767C21.767 6.50108 17.3608 3 11.9302 3Z" fill="#6D6D6D"/>
</svg>
