<svg width="18" height="18" viewBox="0 0 18 18" fill="none" xmlns="http://www.w3.org/2000/svg">
<path fill-rule="evenodd" clip-rule="evenodd" d="M8.8254 0.75C4.58445 0.75 1.14648 4.18797 1.14648 8.42892C1.14648 12.6699 4.58445 16.1078 8.8254 16.1078C10.5186 16.1078 12.0838 15.5598 13.3533 14.6315L15.4951 16.7677C15.8617 17.1333 16.4553 17.1326 16.821 16.766C17.1866 16.3994 17.1858 15.8058 16.8192 15.4402L14.7219 13.3483C15.8347 12.0159 16.5043 10.3006 16.5043 8.42892C16.5043 4.18797 13.0664 0.75 8.8254 0.75ZM3.02148 8.42892C3.02148 5.2235 5.61999 2.625 8.8254 2.625C12.0308 2.625 14.6293 5.2235 14.6293 8.42892C14.6293 11.6343 12.0308 14.2328 8.8254 14.2328C5.61999 14.2328 3.02148 11.6343 3.02148 8.42892Z" fill="#6D6D6D"/>
</svg>
