<svg width="18" height="18" viewBox="0 0 18 18" fill="none" xmlns="http://www.w3.org/2000/svg">
<path fill-rule="evenodd" clip-rule="evenodd" d="M13.5 3H14.25C14.8467 3 15.419 3.23705 15.841 3.65901C16.2629 4.08097 16.5 4.65326 16.5 5.25V14.25C16.5 14.8467 16.2629 15.419 15.841 15.841C15.419 16.2629 14.8467 16.5 14.25 16.5H3.75C3.15326 16.5 2.58097 16.2629 2.15901 15.841C1.73705 15.419 1.5 14.8467 1.5 14.25V5.25C1.5 4.65326 1.73705 4.08097 2.15901 3.65901C2.58097 3.23705 3.15326 3 3.75 3H4.5V2.25C4.5 2.05109 4.57902 1.86032 4.71967 1.71967C4.86032 1.57902 5.05109 1.5 5.25 1.5C5.44891 1.5 5.63968 1.57902 5.78033 1.71967C5.92098 1.86032 6 2.05109 6 2.25V3H12V2.25C12 2.05109 12.079 1.86032 12.2197 1.71967C12.3603 1.57902 12.5511 1.5 12.75 1.5C12.9489 1.5 13.1397 1.57902 13.2803 1.71967C13.421 1.86032 13.5 2.05109 13.5 2.25V3ZM14.7803 14.7803C14.921 14.6397 15 14.4489 15 14.25V7.5H3V14.25C3 14.4489 3.07902 14.6397 3.21967 14.7803C3.36032 14.921 3.55109 15 3.75 15H14.25C14.4489 15 14.6397 14.921 14.7803 14.7803ZM3 6H15V5.25C15 5.05109 14.921 4.86032 14.7803 4.71967C14.6397 4.57902 14.4489 4.5 14.25 4.5H3.75C3.55109 4.5 3.36032 4.57902 3.21967 4.71967C3.07902 4.86032 3 5.05109 3 5.25V6ZM12 13.5C12.2967 13.5 12.5867 13.412 12.8334 13.2472C13.08 13.0824 13.2723 12.8481 13.3858 12.574C13.4994 12.2999 13.5291 11.9983 13.4712 11.7074C13.4133 11.4164 13.2704 11.1491 13.0607 10.9393C12.8509 10.7296 12.5836 10.5867 12.2926 10.5288C12.0017 10.4709 11.7001 10.5007 11.426 10.6142C11.1519 10.7277 10.9176 10.92 10.7528 11.1666C10.588 11.4133 10.5 11.7033 10.5 12C10.5 12.3978 10.658 12.7794 10.9393 13.0607C11.2206 13.342 11.6022 13.5 12 13.5Z" fill="#AFAFAF"/>
</svg>
