<svg width="28" height="28" viewBox="0 0 28 28" fill="none" xmlns="http://www.w3.org/2000/svg">
<rect width="28" height="28" rx="14" fill="#242424"/>
<path fill-rule="evenodd" clip-rule="evenodd" d="M10.5894 9.41076C10.2639 9.08533 9.73628 9.08533 9.41084 9.41076C9.0854 9.7362 9.0854 10.2638 9.41084 10.5893L13.0796 14.2581L9.41076 17.927C9.08533 18.2524 9.08533 18.78 9.41076 19.1055C9.7362 19.4309 10.2638 19.4309 10.5893 19.1055L14.2582 15.4366L17.927 19.1054C18.2524 19.4308 18.78 19.4308 19.1055 19.1054C19.4309 18.78 19.4309 18.2523 19.1055 17.9269L15.4367 14.2581L19.1054 10.5893C19.4308 10.2639 19.4308 9.73627 19.1054 9.41084C18.78 9.0854 18.2523 9.0854 17.9269 9.41084L14.2582 13.0796L10.5894 9.41076Z" fill="white"/>
</svg>
