<svg width="32" height="32" viewBox="0 0 32 32" fill="none" xmlns="http://www.w3.org/2000/svg">
<path fill-rule="evenodd" clip-rule="evenodd" d="M15.1124 28.4443C15.1124 28.9352 15.5104 29.3332 16.0013 29.3332C16.4922 29.3332 16.8902 28.9352 16.8902 28.4443V16.8887H28.4457C28.9367 16.8887 29.3346 16.4908 29.3346 15.9998C29.3346 15.5089 28.9367 15.1109 28.4457 15.1109H16.8902V3.55539C16.8902 3.06447 16.4922 2.6665 16.0013 2.6665C15.5104 2.6665 15.1124 3.06447 15.1124 3.55539V15.1109H3.55686C3.06594 15.1109 2.66797 15.5089 2.66797 15.9998C2.66797 16.4908 3.06594 16.8887 3.55686 16.8887H15.1124V28.4443Z" fill="black"/>
<path fill-rule="evenodd" clip-rule="evenodd" d="M16 3.33333C15.8773 3.33333 15.7778 3.43282 15.7778 3.55556V15.7778H3.55555C3.43283 15.7778 3.33333 15.8773 3.33333 16C3.33333 16.1227 3.43282 16.2222 3.55556 16.2222H15.7778V28.4444C15.7778 28.5672 15.8773 28.6667 16 28.6667C16.1227 28.6667 16.2222 28.5672 16.2222 28.4444V16.2222H28.4444C28.5672 16.2222 28.6667 16.1227 28.6667 16C28.6667 15.8773 28.5672 15.7778 28.4444 15.7778H16.2222V3.55555C16.2222 3.43283 16.1227 3.33333 16 3.33333ZM14.4444 3.55556C14.4444 2.69645 15.1409 2 16 2C16.8591 2 17.5556 2.69644 17.5556 3.55555V14.4444H28.4444C29.3036 14.4444 30 15.1409 30 16C30 16.8591 29.3036 17.5556 28.4444 17.5556H17.5556V28.4444C17.5556 29.3036 16.8591 30 16 30C15.1409 30 14.4444 29.3036 14.4444 28.4444V17.5556H3.55556C2.69645 17.5556 2 16.8591 2 16C2 15.1409 2.69644 14.4444 3.55555 14.4444H14.4444V3.55556Z" fill="black"/>
</svg>
