<svg width="20" height="20" viewBox="0 0 20 20" fill="none" xmlns="http://www.w3.org/2000/svg">
<g clip-path="url(#clip0_20782_56182)">
<path d="M9.99979 20C15.4609 20 20 15.4706 20 10C20 4.53903 15.4508 0 9.98975 0C4.51946 0 0 4.53903 0 10C0 15.4706 4.52908 20 9.99979 20ZM10.0002 18.3335C5.37199 18.3335 1.67535 14.6273 1.67535 10C1.67535 5.38191 5.36195 1.66653 9.98975 1.66653C14.6075 1.66653 18.323 5.38233 18.333 10C18.3426 14.6277 14.618 18.3335 10.0002 18.3335Z" fill="white"/>
<path fill-rule="evenodd" clip-rule="evenodd" d="M14.7132 6.88694C15.0713 7.20166 15.0977 7.73743 14.7721 8.08363L10.403 12.7298C9.63136 13.5504 8.29033 13.5315 7.54375 12.6894L5.21098 10.0584C4.89602 9.70314 4.93857 9.16834 5.30602 8.86386C5.67347 8.55937 6.22667 8.60051 6.54163 8.95574L8.8744 11.5868C8.93494 11.6551 9.04367 11.6566 9.10624 11.5901L13.4753 6.94393C13.8009 6.59773 14.3551 6.57222 14.7132 6.88694Z" fill="white"/>
</g>
<defs>
<clipPath id="clip0_20782_56182">
<rect width="20" height="20" fill="white"/>
</clipPath>
</defs>
</svg>
