<svg width="20" height="20" viewBox="0 0 20 20" fill="none" xmlns="http://www.w3.org/2000/svg">
<path d="M9.99979 20C15.4609 20 20 15.4706 20 10C20 4.53903 15.4508 0 9.98975 0C4.51946 0 0 4.53903 0 10C0 15.4706 4.52908 20 9.99979 20ZM10.0002 18.3335C5.37199 18.3335 1.67535 14.6273 1.67535 10C1.67535 5.38191 5.36195 1.66653 9.98975 1.66653C14.6075 1.66653 18.323 5.38233 18.333 10C18.3426 14.6277 14.6171 18.3335 9.99937 18.3335M9.98975 11.7745C10.4599 11.7745 10.7247 11.5097 10.7344 11.0002L10.8816 5.82364C10.8916 5.32335 10.4993 4.95106 9.97971 4.95106C9.45013 4.95106 9.07783 5.31373 9.08745 5.8136L9.21504 11.0002C9.22466 11.5 9.49949 11.7745 9.98975 11.7745ZM9.98975 14.9607C10.5482 14.9607 11.0481 14.5097 11.0481 13.9413C11.0481 13.3628 10.5582 12.9214 9.98975 12.9214C9.41122 12.9214 8.93058 13.3724 8.93058 13.9413C8.93058 14.5001 9.42085 14.9607 9.98975 14.9607Z" fill="#E66565"/>
</svg>
