<svg width="14" height="14" viewBox="0 0 14 14" fill="none" xmlns="http://www.w3.org/2000/svg">
<path fill-rule="evenodd" clip-rule="evenodd" d="M4.01583 2.98444C3.73107 2.69968 3.26939 2.69968 2.98463 2.98444C2.69987 3.2692 2.69987 3.73088 2.98463 4.01564L6.19484 7.22584L2.98456 10.4361C2.69981 10.7209 2.69981 11.1826 2.98456 11.4673C3.26932 11.7521 3.731 11.7521 4.01576 11.4673L7.22603 8.25704L10.4362 11.4673C10.721 11.752 11.1827 11.752 11.4674 11.4673C11.7522 11.1825 11.7522 10.7208 11.4674 10.4361L8.25723 7.22584L11.4674 4.0157C11.7521 3.73094 11.7521 3.26926 11.4674 2.9845C11.1826 2.69975 10.7209 2.69975 10.4362 2.9845L7.22603 6.19465L4.01583 2.98444Z" fill="white" fill-opacity="0.5"/>
</svg>
