<svg  viewBox="0 0 30 30" fill="none" xmlns="http://www.w3.org/2000/svg">
<path fill-rule="evenodd" clip-rule="evenodd" d="M25 13.4375C24.1371 13.4375 23.4375 14.1371 23.4375 15C23.4375 15.8629 24.1371 16.5625 25 16.5625C25.8629 16.5625 26.5625 15.8629 26.5625 15C26.5625 14.1371 25.8629 13.4375 25 13.4375ZM21.5625 15C21.5625 13.1015 23.1015 11.5625 25 11.5625C26.8985 11.5625 28.4375 13.1015 28.4375 15C28.4375 16.8985 26.8985 18.4375 25 18.4375C23.1015 18.4375 21.5625 16.8985 21.5625 15Z" fill="black"/>
<path fill-rule="evenodd" clip-rule="evenodd" d="M25 3.4375C24.1371 3.4375 23.4375 4.13705 23.4375 5C23.4375 5.86295 24.1371 6.5625 25 6.5625C25.8629 6.5625 26.5625 5.86295 26.5625 5C26.5625 4.13705 25.8629 3.4375 25 3.4375ZM21.5625 5C21.5625 3.10152 23.1015 1.5625 25 1.5625C26.8985 1.5625 28.4375 3.10152 28.4375 5C28.4375 6.89848 26.8985 8.4375 25 8.4375C23.1015 8.4375 21.5625 6.89848 21.5625 5Z" fill="black"/>
<path fill-rule="evenodd" clip-rule="evenodd" d="M25 23.4375C24.1371 23.4375 23.4375 24.1371 23.4375 25C23.4375 25.8629 24.1371 26.5625 25 26.5625C25.8629 26.5625 26.5625 25.8629 26.5625 25C26.5625 24.1371 25.8629 23.4375 25 23.4375ZM21.5625 25C21.5625 23.1015 23.1015 21.5625 25 21.5625C26.8985 21.5625 28.4375 23.1015 28.4375 25C28.4375 26.8985 26.8985 28.4375 25 28.4375C23.1015 28.4375 21.5625 26.8985 21.5625 25Z" fill="black"/>
<path fill-rule="evenodd" clip-rule="evenodd" d="M5 13.4375C4.13705 13.4375 3.4375 14.1371 3.4375 15C3.4375 15.8629 4.13705 16.5625 5 16.5625C5.86295 16.5625 6.5625 15.8629 6.5625 15C6.5625 14.1371 5.86295 13.4375 5 13.4375ZM1.5625 15C1.5625 13.1015 3.10152 11.5625 5 11.5625C6.89848 11.5625 8.4375 13.1015 8.4375 15C8.4375 16.8985 6.89848 18.4375 5 18.4375C3.10152 18.4375 1.5625 16.8985 1.5625 15Z" fill="black"/>
<path fill-rule="evenodd" clip-rule="evenodd" d="M6.5625 15C6.5625 14.4822 6.98223 14.0625 7.5 14.0625H22.5C23.0178 14.0625 23.4375 14.4822 23.4375 15C23.4375 15.5178 23.0178 15.9375 22.5 15.9375H7.5C6.98223 15.9375 6.5625 15.5178 6.5625 15Z" fill="black"/>
<path fill-rule="evenodd" clip-rule="evenodd" d="M14.0246 5.27459C14.8874 4.41176 16.1055 4.0625 17.5 4.0625H22.5C23.0178 4.0625 23.4375 4.48223 23.4375 5C23.4375 5.51777 23.0178 5.9375 22.5 5.9375H17.5C16.3945 5.9375 15.7376 6.21324 15.3504 6.60041C14.9632 6.98759 14.6875 7.64451 14.6875 8.75V21.25C14.6875 22.3555 14.9632 23.0124 15.3504 23.3996C15.7376 23.7868 16.3945 24.0625 17.5 24.0625H22.5C23.0178 24.0625 23.4375 24.4822 23.4375 25C23.4375 25.5178 23.0178 25.9375 22.5 25.9375H17.5C16.1055 25.9375 14.8874 25.5882 14.0246 24.7254C13.1618 23.8626 12.8125 22.6445 12.8125 21.25V8.75C12.8125 7.35549 13.1618 6.13741 14.0246 5.27459Z" fill="black"/>
</svg>
