<svg  viewBox="0 0 30 30" fill="none" xmlns="http://www.w3.org/2000/svg">
<path fill-rule="evenodd" clip-rule="evenodd" d="M24.6875 11.875C24.6875 11.3572 25.1072 10.9375 25.625 10.9375C26.5705 10.9375 27.4835 11.0718 28.0156 11.7813C28.271 12.1218 28.3618 12.5003 28.401 12.8134C28.4376 13.1066 28.4376 13.4308 28.4375 13.7174C28.4375 13.7283 28.4375 13.7392 28.4375 13.75V16.25C28.4375 16.2608 28.4375 16.2717 28.4375 16.2826C28.4376 16.5692 28.4376 16.8934 28.401 17.1866C28.3618 17.4997 28.271 17.8782 28.0156 18.2187C27.4835 18.9282 26.5705 19.0625 25.625 19.0625C25.1072 19.0625 24.6875 18.6428 24.6875 18.125C24.6875 17.6072 25.1072 17.1875 25.625 17.1875C26.0541 17.1875 26.3033 17.1502 26.4427 17.1089C26.4775 17.0986 26.501 17.0894 26.5161 17.0826C26.5227 17.0604 26.5322 17.0201 26.5404 16.954C26.561 16.7897 26.5625 16.5806 26.5625 16.25V13.75C26.5625 13.4194 26.561 13.2103 26.5404 13.046C26.5322 12.9799 26.5227 12.9396 26.5161 12.9174C26.501 12.9106 26.4775 12.9014 26.4427 12.8911C26.3033 12.8498 26.0541 12.8125 25.625 12.8125C25.1072 12.8125 24.6875 12.3928 24.6875 11.875ZM26.5389 12.9299C26.5388 12.9299 26.5373 12.929 26.5349 12.9271C26.5378 12.9288 26.539 12.9298 26.5389 12.9299ZM26.5389 17.0701C26.539 17.0702 26.5378 17.0712 26.5349 17.0729C26.5373 17.071 26.5388 17.0701 26.5389 17.0701Z" fill="black"/>
<path fill-rule="evenodd" clip-rule="evenodd" d="M7.74582 11.5909C8.2479 11.4644 8.75745 11.7689 8.88393 12.271C9.3343 14.0588 9.3343 15.9412 8.88393 17.729C8.75745 18.2311 8.2479 18.5356 7.74582 18.4091C7.24374 18.2826 6.93925 17.7731 7.06573 17.271C7.44037 15.7838 7.44037 14.2162 7.06573 12.729C6.93925 12.2269 7.24374 11.7174 7.74582 11.5909Z" fill="black"/>
<path fill-rule="evenodd" clip-rule="evenodd" d="M12.1208 11.5909C12.6229 11.4644 13.1325 11.7689 13.2589 12.271C13.7093 14.0588 13.7093 15.9412 13.2589 17.729C13.1325 18.2311 12.6229 18.5356 12.1208 18.4091C11.6187 18.2826 11.3143 17.7731 11.4407 17.271C11.8154 15.7838 11.8154 14.2162 11.4407 12.729C11.3143 12.2269 11.6187 11.7174 12.1208 11.5909Z" fill="black"/>
<path fill-rule="evenodd" clip-rule="evenodd" d="M16.4958 11.5909C16.9979 11.4644 17.5075 11.7689 17.6339 12.271C18.0843 14.0588 18.0843 15.9412 17.6339 17.729C17.5075 18.2311 16.9979 18.5356 16.4958 18.4091C15.9937 18.2826 15.6893 17.7731 15.8157 17.271C16.1904 15.7838 16.1904 14.2162 15.8157 12.729C15.6893 12.2269 15.9937 11.7174 16.4958 11.5909Z" fill="black"/>
<path fill-rule="evenodd" clip-rule="evenodd" d="M4.41291 8.16291C3.77354 8.80228 3.4375 9.9933 3.4375 12.5V17.5C3.4375 20.0067 3.77354 21.1977 4.41291 21.8371C5.05228 22.4765 6.2433 22.8125 8.75 22.8125H16.25C18.7567 22.8125 19.9477 22.4765 20.5871 21.8371C21.2265 21.1977 21.5625 20.0067 21.5625 17.5V12.5C21.5625 9.9933 21.2265 8.80228 20.5871 8.16291C19.9477 7.52354 18.7567 7.1875 16.25 7.1875H8.75C6.2433 7.1875 5.05228 7.52354 4.41291 8.16291ZM3.08709 6.83709C4.32272 5.60146 6.2567 5.3125 8.75 5.3125H16.25C18.7433 5.3125 20.6773 5.60146 21.9129 6.83709C23.1485 8.07272 23.4375 10.0067 23.4375 12.5V17.5C23.4375 19.9933 23.1485 21.9273 21.9129 23.1629C20.6773 24.3985 18.7433 24.6875 16.25 24.6875H8.75C6.2567 24.6875 4.32272 24.3985 3.08709 23.1629C1.85146 21.9273 1.5625 19.9933 1.5625 17.5V12.5C1.5625 10.0067 1.85146 8.07272 3.08709 6.83709Z" fill="black"/>
</svg>
