<svg  viewBox="0 0 30 30" fill="none" xmlns="http://www.w3.org/2000/svg">
<path fill-rule="evenodd" clip-rule="evenodd" d="M6.82491 3.89465C7.67055 3.02954 8.90175 2.59998 10.6125 2.59998H19.3875C21.0983 2.59998 22.3295 3.02954 23.1751 3.89465C23.9866 4.72481 24.3 5.82107 24.5049 6.79434L24.5052 6.79579L25.9177 13.5583C25.9754 13.8346 25.9056 14.1222 25.7275 14.3412C25.5495 14.5603 25.2823 14.6875 25 14.6875H5.00001C4.71774 14.6875 4.4505 14.5603 4.27248 14.3412C4.09445 14.1222 4.0246 13.8346 4.08231 13.5583L5.49512 6.79434C5.70002 5.82107 6.01343 4.72481 6.82491 3.89465ZM7.3299 7.18061C7.32985 7.18084 7.32995 7.18038 7.3299 7.18061L6.15356 12.8125H23.8465L22.6701 7.18061C22.6701 7.18031 22.6702 7.18091 22.6701 7.18061C22.4751 6.25438 22.2445 5.62501 21.8343 5.2053C21.458 4.82041 20.7892 4.47498 19.3875 4.47498H10.6125C9.21077 4.47498 8.54197 4.82041 8.16573 5.2053C7.75544 5.62504 7.52497 6.25426 7.3299 7.18061Z" fill="black"/>
<path fill-rule="evenodd" clip-rule="evenodd" d="M4.14556 17.2496C4.14554 17.2498 4.14558 17.2494 4.14556 17.2496L3.44568 24.8608L3.4455 24.8628C3.36164 25.7547 4.0812 26.5625 5.04961 26.5625H7.39961C7.94948 26.5625 8.05687 26.4457 8.05891 26.4435C8.10341 26.4012 8.14904 26.3246 8.28522 25.916L8.53522 25.166C8.54179 25.1463 8.5485 25.1261 8.55538 25.1053C8.69579 24.6815 8.90498 24.05 9.41107 23.5727C9.98384 23.0325 10.7763 22.8125 11.7996 22.8125H18.1996C19.1965 22.8125 19.9882 22.999 20.5668 23.533C21.0683 23.996 21.2821 24.6284 21.4335 25.076C21.4432 25.1046 21.4526 25.1325 21.4618 25.1596L21.464 25.166L21.714 25.916C21.8502 26.3246 21.8958 26.4012 21.9403 26.4434C21.9406 26.4437 22.0451 26.5625 22.5996 26.5625H24.9496C25.918 26.5625 26.6376 25.7547 26.5537 24.8628L25.8537 17.2496C25.8536 17.2492 25.8536 17.2488 25.8536 17.2483C25.7641 16.2907 25.6364 15.7248 25.3267 15.3576C25.0618 15.0434 24.4874 14.6875 22.9746 14.6875H7.02461C5.51185 14.6875 4.93744 15.0434 4.6725 15.3576C4.36272 15.7248 4.23501 16.2916 4.14556 17.2496ZM3.23923 14.1487C4.01804 13.2253 5.26238 12.8125 7.02461 12.8125H22.9746C24.7368 12.8125 25.9812 13.2253 26.76 14.1487C27.4939 15.0188 27.635 16.1588 27.7206 17.0754L27.7207 17.0767L28.4205 24.6872C28.4205 24.6874 28.4205 24.6871 28.4205 24.6872C28.6113 26.7201 26.981 28.4375 24.9496 28.4375H22.5996C21.8041 28.4375 21.1399 28.2688 20.6496 27.8034C20.2305 27.4057 20.0578 26.8811 19.9544 26.567C19.9477 26.5467 19.9414 26.5274 19.9352 26.509L19.6864 25.7623C19.4906 25.1894 19.4111 25.018 19.295 24.9108C19.2235 24.8448 19.0027 24.6875 18.1996 24.6875H11.7996C11.0229 24.6875 10.7841 24.855 10.6975 24.9367C10.569 25.0579 10.4857 25.2438 10.314 25.759L10.064 26.509C10.0579 26.5274 10.0515 26.5467 10.0448 26.567C9.94145 26.8811 9.76878 27.4057 9.34966 27.8034C8.85934 28.2688 8.19514 28.4375 7.39961 28.4375H5.04961C3.01839 28.4375 1.38816 26.7209 1.57863 24.6883C1.57866 24.688 1.5786 24.6887 1.57863 24.6883L2.27867 17.0754C2.36422 16.1588 2.50533 15.0188 3.23923 14.1487Z" fill="black"/>
<path fill-rule="evenodd" clip-rule="evenodd" d="M2.8125 10C2.8125 9.48223 3.23223 9.0625 3.75 9.0625H5C5.51777 9.0625 5.9375 9.48223 5.9375 10C5.9375 10.5178 5.51777 10.9375 5 10.9375H3.75C3.23223 10.9375 2.8125 10.5178 2.8125 10Z" fill="black"/>
<path fill-rule="evenodd" clip-rule="evenodd" d="M24.0625 10C24.0625 9.48223 24.4822 9.0625 25 9.0625H26.25C26.7678 9.0625 27.1875 9.48223 27.1875 10C27.1875 10.5178 26.7678 10.9375 26.25 10.9375H25C24.4822 10.9375 24.0625 10.5178 24.0625 10Z" fill="black"/>
<path fill-rule="evenodd" clip-rule="evenodd" d="M6.5625 18.75C6.5625 18.2322 6.98223 17.8125 7.5 17.8125H11.25C11.7678 17.8125 12.1875 18.2322 12.1875 18.75C12.1875 19.2678 11.7678 19.6875 11.25 19.6875H7.5C6.98223 19.6875 6.5625 19.2678 6.5625 18.75Z" fill="black"/>
<path fill-rule="evenodd" clip-rule="evenodd" d="M17.8125 18.75C17.8125 18.2322 18.2322 17.8125 18.75 17.8125H22.5C23.0178 17.8125 23.4375 18.2322 23.4375 18.75C23.4375 19.2678 23.0178 19.6875 22.5 19.6875H18.75C18.2322 19.6875 17.8125 19.2678 17.8125 18.75Z" fill="black"/>
</svg>
