<svg  viewBox="0 0 30 30" fill="none" xmlns="http://www.w3.org/2000/svg">
<path fill-rule="evenodd" clip-rule="evenodd" d="M5 3.4375C4.14277 3.4375 3.4375 4.14277 3.4375 5V7.5C3.4375 8.35723 4.14277 9.0625 5 9.0625H8.75C9.60723 9.0625 10.3125 8.35723 10.3125 7.5V5C10.3125 4.14277 9.60723 3.4375 8.75 3.4375H5ZM1.5625 5C1.5625 3.10723 3.10723 1.5625 5 1.5625H8.75C10.6428 1.5625 12.1875 3.10723 12.1875 5V7.5C12.1875 9.39277 10.6428 10.9375 8.75 10.9375H5C3.10723 10.9375 1.5625 9.39277 1.5625 7.5V5Z" fill="black"/>
<path fill-rule="evenodd" clip-rule="evenodd" d="M21.5 4.6875C21.1928 4.6875 20.9375 4.94277 20.9375 5.25002V7.24998C20.9375 7.55723 21.1928 7.8125 21.5 7.8125H26C26.3072 7.8125 26.5625 7.55723 26.5625 7.24998V5.25002C26.5625 4.94277 26.3072 4.6875 26 4.6875H21.5ZM19.0625 5.25002C19.0625 3.90726 20.1572 2.8125 21.5 2.8125H26C27.3428 2.8125 28.4375 3.90726 28.4375 5.25002V7.24998C28.4375 8.59274 27.3428 9.6875 26 9.6875H21.5C20.1572 9.6875 19.0625 8.59274 19.0625 7.24998V5.25002Z" fill="black"/>
<path fill-rule="evenodd" clip-rule="evenodd" d="M21.5 14.0625C21.1928 14.0625 20.9375 14.3178 20.9375 14.625V16.625C20.9375 16.9322 21.1928 17.1875 21.5 17.1875H26C26.3072 17.1875 26.5625 16.9322 26.5625 16.625V14.625C26.5625 14.3178 26.3072 14.0625 26 14.0625H21.5ZM19.0625 14.625C19.0625 13.2823 20.1572 12.1875 21.5 12.1875H26C27.3428 12.1875 28.4375 13.2823 28.4375 14.625V16.625C28.4375 17.9677 27.3428 19.0625 26 19.0625H21.5C20.1572 19.0625 19.0625 17.9677 19.0625 16.625V14.625Z" fill="black"/>
<path fill-rule="evenodd" clip-rule="evenodd" d="M10.3125 6.25C10.3125 5.73223 10.7322 5.3125 11.25 5.3125H20C20.5178 5.3125 20.9375 5.73223 20.9375 6.25C20.9375 6.76777 20.5178 7.1875 20 7.1875H11.25C10.7322 7.1875 10.3125 6.76777 10.3125 6.25Z" fill="black"/>
<path fill-rule="evenodd" clip-rule="evenodd" d="M15.625 5.3125C16.1428 5.3125 16.5625 5.73223 16.5625 6.25V22.5C16.5625 23.3572 17.2678 24.0625 18.125 24.0625H20C20.5178 24.0625 20.9375 24.4822 20.9375 25C20.9375 25.5178 20.5178 25.9375 20 25.9375H18.125C16.2322 25.9375 14.6875 24.3928 14.6875 22.5V6.25C14.6875 5.73223 15.1072 5.3125 15.625 5.3125Z" fill="black"/>
<path fill-rule="evenodd" clip-rule="evenodd" d="M14.6875 15.625C14.6875 15.1072 15.1072 14.6875 15.625 14.6875H20C20.5178 14.6875 20.9375 15.1072 20.9375 15.625C20.9375 16.1428 20.5178 16.5625 20 16.5625H15.625C15.1072 16.5625 14.6875 16.1428 14.6875 15.625Z" fill="black"/>
<path fill-rule="evenodd" clip-rule="evenodd" d="M21.5 23.4375C21.1928 23.4375 20.9375 23.6928 20.9375 24V26C20.9375 26.3072 21.1928 26.5625 21.5 26.5625H26C26.3072 26.5625 26.5625 26.3072 26.5625 26V24C26.5625 23.6928 26.3072 23.4375 26 23.4375H21.5ZM19.0625 24C19.0625 22.6573 20.1572 21.5625 21.5 21.5625H26C27.3428 21.5625 28.4375 22.6573 28.4375 24V26C28.4375 27.3427 27.3428 28.4375 26 28.4375H21.5C20.1572 28.4375 19.0625 27.3427 19.0625 26V24Z" fill="black"/>
</svg>
