<svg  viewBox="0 0 30 30" fill="none" xmlns="http://www.w3.org/2000/svg">
<path fill-rule="evenodd" clip-rule="evenodd" d="M4.27385 4.27385C3.739 4.8087 3.4375 5.82509 3.4375 8.05V15.975C3.4375 18.2004 3.73917 19.2159 4.27323 19.749C4.807 20.2817 5.82231 20.5813 8.04736 20.575L8.05 20.575L21.95 20.575C24.1767 20.575 25.1924 20.2761 25.7268 19.7427C26.2607 19.2098 26.5625 18.1946 26.5625 15.9625V8.05C26.5625 5.825 26.2609 4.8092 25.7252 4.27447C25.1888 3.73911 24.1691 3.4375 21.9375 3.4375H8.05C5.82509 3.4375 4.8087 3.739 4.27385 4.27385ZM2.94802 2.94802C4.0788 1.81725 5.83741 1.5625 8.05 1.5625H21.9375C24.1559 1.5625 25.9174 1.81714 27.0498 2.9474C28.1828 4.0783 28.4375 5.8375 28.4375 8.05V15.9625C28.4375 18.1804 28.1831 19.9402 27.0514 21.0698C25.9201 22.1989 24.1608 22.45 21.95 22.45H8.05136C5.83951 22.4561 4.08028 22.2055 2.94865 21.076C1.81708 19.9466 1.5625 18.1871 1.5625 15.975V8.05C1.5625 5.83741 1.81725 4.0788 2.94802 2.94802Z" fill="black"/>
<path fill-rule="evenodd" clip-rule="evenodd" d="M15 20.5875C15.5178 20.5875 15.9375 21.0073 15.9375 21.525V27.5C15.9375 28.0178 15.5178 28.4375 15 28.4375C14.4822 28.4375 14.0625 28.0178 14.0625 27.5V21.525C14.0625 21.0073 14.4822 20.5875 15 20.5875Z" fill="black"/>
<path fill-rule="evenodd" clip-rule="evenodd" d="M1.5625 16.25C1.5625 15.7322 1.98223 15.3125 2.5 15.3125H27.5C28.0178 15.3125 28.4375 15.7322 28.4375 16.25C28.4375 16.7678 28.0178 17.1875 27.5 17.1875H2.5C1.98223 17.1875 1.5625 16.7678 1.5625 16.25Z" fill="black"/>
<path fill-rule="evenodd" clip-rule="evenodd" d="M8.4375 27.5C8.4375 26.9822 8.85723 26.5625 9.375 26.5625H20.625C21.1428 26.5625 21.5625 26.9822 21.5625 27.5C21.5625 28.0178 21.1428 28.4375 20.625 28.4375H9.375C8.85723 28.4375 8.4375 28.0178 8.4375 27.5Z" fill="black"/>
</svg>
