<svg viewBox="0 0 30 30" fill="none" xmlns="http://www.w3.org/2000/svg">
<path fill-rule="evenodd" clip-rule="evenodd" d="M5.96209 5.96209C7.34892 4.57525 9.40754 4.0625 12 4.0625H18C20.5925 4.0625 22.6511 4.57525 24.0379 5.96209C25.4247 7.34892 25.9375 9.40754 25.9375 12V18C25.9375 20.5925 25.4247 22.6511 24.0379 24.0379C22.6511 25.4247 20.5925 25.9375 18 25.9375H12C9.40754 25.9375 7.34892 25.4247 5.96209 24.0379C4.57525 22.6511 4.0625 20.5925 4.0625 18V12C4.0625 9.40754 4.57525 7.34892 5.96209 5.96209ZM7.28791 7.28791C6.42475 8.15108 5.9375 9.59247 5.9375 12V18C5.9375 20.4075 6.42475 21.8489 7.28791 22.7121C8.15108 23.5753 9.59247 24.0625 12 24.0625H18C20.4075 24.0625 21.8489 23.5753 22.7121 22.7121C23.5753 21.8489 24.0625 20.4075 24.0625 18V12C24.0625 9.59247 23.5753 8.15108 22.7121 7.28791C21.8489 6.42475 20.4075 5.9375 18 5.9375H12C9.59247 5.9375 8.15108 6.42475 7.28791 7.28791Z" fill="black"/>
<path fill-rule="evenodd" clip-rule="evenodd" d="M9.10271 9.10271C10.0677 8.13775 11.47 7.8125 13.125 7.8125H16.875C18.53 7.8125 19.9323 8.13775 20.8973 9.10271C21.8622 10.0677 22.1875 11.47 22.1875 13.125V16.875C22.1875 18.53 21.8622 19.9323 20.8973 20.8973C19.9323 21.8622 18.53 22.1875 16.875 22.1875H13.125C11.47 22.1875 10.0677 21.8622 9.10271 20.8973C8.13775 19.9323 7.8125 18.53 7.8125 16.875V13.125C7.8125 11.47 8.13775 10.0677 9.10271 9.10271ZM10.4285 10.4285C9.98725 10.8698 9.6875 11.655 9.6875 13.125V16.875C9.6875 18.345 9.98725 19.1302 10.4285 19.5715C10.8698 20.0128 11.655 20.3125 13.125 20.3125H16.875C18.345 20.3125 19.1302 20.0128 19.5715 19.5715C20.0128 19.1302 20.3125 18.345 20.3125 16.875V13.125C20.3125 11.655 20.0128 10.8698 19.5715 10.4285C19.1302 9.98725 18.345 9.6875 16.875 9.6875H13.125C11.655 9.6875 10.8698 9.98725 10.4285 10.4285Z" fill="black"/>
<path fill-rule="evenodd" clip-rule="evenodd" d="M10.0127 1.5625C10.5305 1.5625 10.9502 1.98223 10.9502 2.5V5C10.9502 5.51777 10.5305 5.9375 10.0127 5.9375C9.49493 5.9375 9.0752 5.51777 9.0752 5V2.5C9.0752 1.98223 9.49493 1.5625 10.0127 1.5625Z" fill="black"/>
<path fill-rule="evenodd" clip-rule="evenodd" d="M15 1.5625C15.5178 1.5625 15.9375 1.98223 15.9375 2.5V5C15.9375 5.51777 15.5178 5.9375 15 5.9375C14.4822 5.9375 14.0625 5.51777 14.0625 5V2.5C14.0625 1.98223 14.4822 1.5625 15 1.5625Z" fill="black"/>
<path fill-rule="evenodd" clip-rule="evenodd" d="M20 1.5625C20.5178 1.5625 20.9375 1.98223 20.9375 2.5V5C20.9375 5.51777 20.5178 5.9375 20 5.9375C19.4822 5.9375 19.0625 5.51777 19.0625 5V2.5C19.0625 1.98223 19.4822 1.5625 20 1.5625Z" fill="black"/>
<path fill-rule="evenodd" clip-rule="evenodd" d="M24.0625 10C24.0625 9.48223 24.4822 9.0625 25 9.0625H27.5C28.0178 9.0625 28.4375 9.48223 28.4375 10C28.4375 10.5178 28.0178 10.9375 27.5 10.9375H25C24.4822 10.9375 24.0625 10.5178 24.0625 10Z" fill="black"/>
<path fill-rule="evenodd" clip-rule="evenodd" d="M24.0625 15C24.0625 14.4822 24.4822 14.0625 25 14.0625H27.5C28.0178 14.0625 28.4375 14.4822 28.4375 15C28.4375 15.5178 28.0178 15.9375 27.5 15.9375H25C24.4822 15.9375 24.0625 15.5178 24.0625 15Z" fill="black"/>
<path fill-rule="evenodd" clip-rule="evenodd" d="M24.0625 20C24.0625 19.4822 24.4822 19.0625 25 19.0625H27.5C28.0178 19.0625 28.4375 19.4822 28.4375 20C28.4375 20.5178 28.0178 20.9375 27.5 20.9375H25C24.4822 20.9375 24.0625 20.5178 24.0625 20Z" fill="black"/>
<path fill-rule="evenodd" clip-rule="evenodd" d="M20 24.0625C20.5178 24.0625 20.9375 24.4822 20.9375 25V27.5C20.9375 28.0178 20.5178 28.4375 20 28.4375C19.4822 28.4375 19.0625 28.0178 19.0625 27.5V25C19.0625 24.4822 19.4822 24.0625 20 24.0625Z" fill="black"/>
<path fill-rule="evenodd" clip-rule="evenodd" d="M15.0127 24.0625C15.5305 24.0625 15.9502 24.4822 15.9502 25V27.5C15.9502 28.0178 15.5305 28.4375 15.0127 28.4375C14.4949 28.4375 14.0752 28.0178 14.0752 27.5V25C14.0752 24.4822 14.4949 24.0625 15.0127 24.0625Z" fill="black"/>
<path fill-rule="evenodd" clip-rule="evenodd" d="M10.0127 24.0625C10.5305 24.0625 10.9502 24.4822 10.9502 25V27.5C10.9502 28.0178 10.5305 28.4375 10.0127 28.4375C9.49493 28.4375 9.0752 28.0178 9.0752 27.5V25C9.0752 24.4822 9.49493 24.0625 10.0127 24.0625Z" fill="black"/>
<path fill-rule="evenodd" clip-rule="evenodd" d="M1.5625 10C1.5625 9.48223 1.98223 9.0625 2.5 9.0625H5C5.51777 9.0625 5.9375 9.48223 5.9375 10C5.9375 10.5178 5.51777 10.9375 5 10.9375H2.5C1.98223 10.9375 1.5625 10.5178 1.5625 10Z" fill="black"/>
<path fill-rule="evenodd" clip-rule="evenodd" d="M1.5625 15C1.5625 14.4822 1.98223 14.0625 2.5 14.0625H5C5.51777 14.0625 5.9375 14.4822 5.9375 15C5.9375 15.5178 5.51777 15.9375 5 15.9375H2.5C1.98223 15.9375 1.5625 15.5178 1.5625 15Z" fill="black"/>
<path fill-rule="evenodd" clip-rule="evenodd" d="M1.5625 20C1.5625 19.4822 1.98223 19.0625 2.5 19.0625H5C5.51777 19.0625 5.9375 19.4822 5.9375 20C5.9375 20.5178 5.51777 20.9375 5 20.9375H2.5C1.98223 20.9375 1.5625 20.5178 1.5625 20Z" fill="black"/>
</svg>
