<svg  viewBox="0 0 30 30" fill="none" xmlns="http://www.w3.org/2000/svg">
<path fill-rule="evenodd" clip-rule="evenodd" d="M8.75 19.0625C9.26777 19.0625 9.6875 19.4822 9.6875 20V22.5C9.6875 23.0178 9.26777 23.4375 8.75 23.4375C8.23223 23.4375 7.8125 23.0178 7.8125 22.5V20C7.8125 19.4822 8.23223 19.0625 8.75 19.0625Z" fill="black"/>
<path fill-rule="evenodd" clip-rule="evenodd" d="M15 16.5625C15.5178 16.5625 15.9375 16.9822 15.9375 17.5V22.5C15.9375 23.0178 15.5178 23.4375 15 23.4375C14.4822 23.4375 14.0625 23.0178 14.0625 22.5V17.5C14.0625 16.9822 14.4822 16.5625 15 16.5625Z" fill="black"/>
<path fill-rule="evenodd" clip-rule="evenodd" d="M21.25 14.0625C21.7678 14.0625 22.1875 14.4822 22.1875 15V22.5C22.1875 23.0178 21.7678 23.4375 21.25 23.4375C20.7322 23.4375 20.3125 23.0178 20.3125 22.5V15C20.3125 14.4822 20.7322 14.0625 21.25 14.0625Z" fill="black"/>
<path fill-rule="evenodd" clip-rule="evenodd" d="M21.8821 6.80742C22.2646 7.15638 22.2918 7.74935 21.9428 8.13185L21.3813 8.74736L21.3798 8.74891C18.1342 12.2905 13.7902 14.7892 8.96279 15.9131C8.45851 16.0305 7.95454 15.7169 7.83713 15.2126C7.71972 14.7083 8.03334 14.2043 8.53762 14.0869C13.0117 13.0453 17.017 10.7342 19.9968 7.48286C19.9971 7.48261 19.9973 7.48236 19.9975 7.48211L20.5576 6.86816C20.9066 6.48565 21.4996 6.45846 21.8821 6.80742Z" fill="black"/>
<path fill-rule="evenodd" clip-rule="evenodd" d="M16.5625 7.5C16.5625 6.98223 16.9822 6.5625 17.5 6.5625H21.25C21.7678 6.5625 22.1875 6.98223 22.1875 7.5V11.25C22.1875 11.7678 21.7678 12.1875 21.25 12.1875C20.7322 12.1875 20.3125 11.7678 20.3125 11.25V8.4375H17.5C16.9822 8.4375 16.5625 8.01777 16.5625 7.5Z" fill="black"/>
<path fill-rule="evenodd" clip-rule="evenodd" d="M4.91521 4.91521C6.44267 3.38775 8.72003 2.8125 11.625 2.8125H18.375C21.28 2.8125 23.5573 3.38775 25.0848 4.91521C26.6122 6.44267 27.1875 8.72003 27.1875 11.625V18.375C27.1875 21.28 26.6122 23.5573 25.0848 25.0848C23.5573 26.6122 21.28 27.1875 18.375 27.1875H11.625C8.72003 27.1875 6.44267 26.6122 4.91521 25.0848C3.38775 23.5573 2.8125 21.28 2.8125 18.375V11.625C2.8125 8.72003 3.38775 6.44267 4.91521 4.91521ZM6.24104 6.24104C5.23725 7.24483 4.6875 8.90496 4.6875 11.625V18.375C4.6875 21.095 5.23725 22.7552 6.24104 23.759C7.24483 24.7628 8.90496 25.3125 11.625 25.3125H18.375C21.095 25.3125 22.7552 24.7628 23.759 23.759C24.7628 22.7552 25.3125 21.095 25.3125 18.375V11.625C25.3125 8.90496 24.7628 7.24483 23.759 6.24104C22.7552 5.23725 21.095 4.6875 18.375 4.6875H11.625C8.90496 4.6875 7.24483 5.23725 6.24104 6.24104Z" fill="black"/>
</svg>
