<svg width="28" height="23" viewBox="0 0 28 23" fill="none" xmlns="http://www.w3.org/2000/svg">
<path d="M15.5828 9.567C15.4469 9.56421 15.312 9.58954 15.1863 9.6414C15.0607 9.69327 14.9472 9.77054 14.8528 9.86838C14.7585 9.96622 14.6854 10.0825 14.6382 10.2099C14.5909 10.3374 14.5705 10.4732 14.5783 10.6089C14.5783 10.881 14.6864 11.142 14.8788 11.3344C15.0712 11.5269 15.3322 11.635 15.6044 11.635C15.8765 11.635 16.1375 11.5269 16.3299 11.3344C16.5224 11.142 16.6305 10.881 16.6305 10.6089C16.6375 10.4697 16.6152 10.3306 16.565 10.2006C16.5148 10.0706 16.4377 9.95264 16.3389 9.85437C16.2401 9.7561 16.1217 9.67973 15.9915 9.63022C15.8612 9.58071 15.722 9.55917 15.5828 9.567Z" fill="black"/>
<path d="M25.7224 2.27403C25.2421 1.79227 24.6712 1.41033 24.0427 1.15023C23.4141 0.890131 22.7403 0.757016 22.06 0.758558H6.05285C5.37273 0.757992 4.69917 0.891535 4.07071 1.15155C3.44224 1.41156 2.87122 1.79293 2.3903 2.27385C1.90938 2.75477 1.528 3.3258 1.26799 3.95426C1.00798 4.58272 0.874436 5.25629 0.875002 5.93641V13.64C0.874436 14.3202 1.00798 14.9937 1.26799 15.6222C1.528 16.2507 1.90938 16.8217 2.3903 17.3026C2.87122 17.7835 3.44224 18.1649 4.07071 18.4249C4.69917 18.6849 5.37273 18.8185 6.05285 18.8179H11.9569L13.6618 22.2851C13.6895 22.3679 13.7425 22.4398 13.8133 22.4908C13.8841 22.5417 13.9692 22.5692 14.0564 22.5692C14.1437 22.5692 14.2287 22.5417 14.2996 22.4908C14.3704 22.4398 14.4234 22.3679 14.4511 22.2851L16.156 18.8122H22.06C22.7396 18.8127 23.4127 18.6794 24.0408 18.4197C24.6689 18.1601 25.2397 17.7792 25.7205 17.2989C26.2014 16.8186 26.5829 16.2482 26.8432 15.6204C27.1036 14.9926 27.2377 14.3197 27.2379 13.64V5.93641C27.2394 5.25615 27.1063 4.58232 26.8462 3.95374C26.5861 3.32517 26.2041 2.7543 25.7224 2.27403ZM6.6843 13.1004C6.42059 13.1117 6.15821 13.0573 5.92073 12.9421C5.68326 12.8269 5.47815 12.6544 5.32382 12.4403H5.29512V12.9455H3.68493V6.15742H5.32382V8.7406C5.49879 8.54681 5.7134 8.39293 5.9531 8.28942C6.1928 8.18592 6.45197 8.13521 6.713 8.14073C7.02401 8.15068 7.32985 8.22301 7.61237 8.35341C7.8949 8.48382 8.14835 8.66964 8.35769 8.89986C8.56703 9.13008 8.728 9.40001 8.83103 9.69362C8.93407 9.98724 8.97707 10.2986 8.9575 10.6091C8.97567 10.9228 8.93091 11.237 8.82584 11.5332C8.72078 11.8293 8.55754 12.1015 8.34572 12.3336C8.13391 12.5658 7.87781 12.7532 7.59248 12.8849C7.30715 13.0166 6.99837 13.0899 6.6843 13.1004ZM11.8306 12.9426H10.252V9.03049C10.252 8.30433 10.1257 7.67289 9.49423 7.57817V5.99956C10.8834 5.99956 11.8306 7.00413 11.8306 8.71477V12.9426ZM15.6193 13.0689C15.275 13.0999 14.9281 13.0589 14.6006 12.9484C14.2731 12.838 13.9722 12.6605 13.7171 12.4273C13.462 12.1942 13.2582 11.9104 13.1188 11.5942C12.9794 11.2779 12.9074 10.9361 12.9074 10.5905C12.9074 10.2448 12.9794 9.903 13.1188 9.58674C13.2582 9.27048 13.462 8.98672 13.7171 8.75356C13.9722 8.52039 14.2731 8.34293 14.6006 8.23248C14.9281 8.12203 15.275 8.081 15.6193 8.11203C15.9637 8.08715 16.3095 8.13296 16.6355 8.24663C16.9616 8.3603 17.261 8.53943 17.5153 8.77303C17.7696 9.00662 17.9734 9.28974 18.1143 9.60499C18.2551 9.92024 18.3301 10.261 18.3345 10.6062C18.3325 10.951 18.259 11.2916 18.1185 11.6065C17.978 11.9214 17.7737 12.2036 17.5184 12.4354C17.2632 12.6672 16.9626 12.8434 16.6356 12.953C16.3087 13.0625 15.9626 13.103 15.6193 13.0717V13.0689ZM24.3332 12.5321C24.3332 14.4896 23.3545 15.4684 21.6496 15.4684H21.3338V13.9873H21.6496C22.502 13.9873 22.7546 13.4506 22.7546 12.6613V12.4403C22.5771 12.6415 22.3583 12.8021 22.1131 12.9111C21.8679 13.02 21.6021 13.0748 21.3338 13.0717C21.0309 13.0688 20.7318 13.0043 20.4546 12.8822C20.1774 12.7601 19.9279 12.583 19.7212 12.3616C19.5145 12.1401 19.355 11.879 19.2523 11.594C19.1496 11.3091 19.1059 11.0062 19.1238 10.7038C19.1028 10.3852 19.1464 10.0656 19.252 9.76421C19.3576 9.46284 19.5229 9.1859 19.7382 8.95002C19.9534 8.71413 20.2141 8.52416 20.5046 8.39151C20.795 8.25885 21.1093 8.18624 21.4285 8.17804C21.6855 8.15818 21.9431 8.20603 22.1758 8.31682C22.4085 8.42762 22.6081 8.59749 22.7546 8.80949H22.7862V8.30433L24.3332 8.3359V12.5321Z" fill="black"/>
<path d="M21.8074 9.53593C21.6687 9.52893 21.5301 9.55109 21.4005 9.60098C21.2709 9.65086 21.1533 9.72736 21.0551 9.82554C20.9569 9.92372 20.8804 10.0414 20.8305 10.171C20.7806 10.3005 20.7585 10.4391 20.7655 10.5778C20.7559 10.7171 20.7763 10.8568 20.8253 10.9876C20.8743 11.1183 20.9507 11.237 21.0494 11.3357C21.1482 11.4345 21.2669 11.5109 21.3976 11.5599C21.5284 11.6089 21.6681 11.6293 21.8074 11.6197C21.9446 11.6278 22.082 11.6061 22.2101 11.556C22.3382 11.506 22.4539 11.4288 22.5493 11.3299C22.6448 11.2309 22.7177 11.1124 22.763 10.9826C22.8083 10.8528 22.825 10.7147 22.8119 10.5778C22.8224 10.4415 22.8038 10.3045 22.7576 10.1759C22.7113 10.0473 22.6383 9.92989 22.5434 9.83148C22.4485 9.73307 22.3339 9.65586 22.207 9.60492C22.0802 9.55398 21.944 9.53047 21.8074 9.53593Z" fill="black"/>
<path d="M6.30556 11.6516C6.88097 11.6516 7.34744 11.1852 7.34744 10.6098C7.34744 10.0343 6.88097 9.56787 6.30556 9.56787C5.73014 9.56787 5.26367 10.0343 5.26367 10.6098C5.26367 11.1852 5.73014 11.6516 6.30556 11.6516Z" fill="black"/>
</svg>
