<svg width="22" height="22" viewBox="0 0 22 22" fill="none" xmlns="http://www.w3.org/2000/svg">
<g clip-path="url(#clip0_60_1715)">
<path d="M15.4366 0.758545H6.56342C3.21391 0.758545 0.5 3.47245 0.5 6.82196V15.6951C0.5 19.0396 3.21391 21.7535 6.56342 21.7535H15.4366C18.7861 21.7535 21.5 19.0396 21.5 15.6951V6.82196C21.5 3.47245 18.7861 0.758545 15.4366 0.758545ZM19.5629 15.8515C19.5629 18.0711 17.7621 19.8719 15.5375 19.8719H6.45748C4.23289 19.8719 2.43202 18.0711 2.43202 15.8515V6.76647C2.43202 4.54187 4.23289 2.74101 6.45748 2.74101H15.5425C17.7671 2.74101 19.568 4.54187 19.568 6.76647V15.8515H19.5629Z" fill="black"/>
<path d="M10.9973 5.86353C7.98578 5.86353 5.54932 8.30503 5.54932 11.3115C5.54932 14.318 7.99082 16.7595 10.9973 16.7595C14.0038 16.7595 16.4453 14.3231 16.4453 11.3115C16.4453 8.29999 14.0038 5.86353 10.9973 5.86353ZM10.9973 14.8426C9.04511 14.8426 7.4662 13.2587 7.4662 11.3115C7.4662 9.36437 9.04511 7.78041 10.9973 7.78041C12.9495 7.78041 14.5284 9.35932 14.5284 11.3115C14.5284 13.2637 12.9495 14.8426 10.9973 14.8426Z" fill="black"/>
<path d="M16.632 4.3855C15.9309 4.3855 15.3608 4.95552 15.3608 5.6567C15.3608 6.35787 15.9309 6.9279 16.632 6.9279C17.3332 6.9279 17.9032 6.35787 17.9032 5.6567C17.9032 4.95552 17.3383 4.3855 16.632 4.3855Z" fill="black"/>
</g>
<defs>
<clipPath id="clip0_60_1715">
<rect width="21" height="21" fill="white" transform="translate(0.5 0.758545)"/>
</clipPath>
</defs>
</svg>
