<svg  viewBox="0 0 208 9" fill="none" xmlns="http://www.w3.org/2000/svg">
<path d="M0.290039 0.839722H2.60004C3.47004 0.839722 4.30004 0.959723 4.89004 1.32972C5.43004 1.66972 5.77003 2.20972 5.77003 3.05972C5.77003 3.99972 5.25004 4.77972 4.28004 5.08972L6.35004 8.19972H4.49004L2.63004 5.28972H1.91004V8.19972H0.290039V0.839722ZM2.72004 4.07972C3.16004 4.07972 3.49004 4.02972 3.74004 3.90972C4.01004 3.76972 4.16004 3.51972 4.16004 3.16972C4.16004 2.81972 4.04004 2.59972 3.74004 2.44972C3.49004 2.31972 3.09004 2.25972 2.53004 2.25972H1.91004V4.08972H2.72004V4.07972Z" fill="#231F20"/>
<path d="M9.62012 0.839722H11.1801L14.1701 8.19972H12.4401L11.8501 6.65972H8.88011L8.28011 8.19972H6.62012L9.62012 0.839722ZM9.39011 5.37972H11.3701L11.0701 4.55972C10.8601 3.97972 10.5901 3.24972 10.4001 2.68972H10.3801C10.1901 3.24972 9.92012 3.97972 9.69012 4.59972L9.39011 5.37972Z" fill="#231F20"/>
<path d="M14.9797 0.839844H17.1597C18.0297 0.839844 18.7697 0.919843 19.3497 1.22984C19.9897 1.55984 20.5397 2.19984 20.5397 3.18984C20.5397 4.08984 20.0997 4.74984 19.4797 5.10984C18.9097 5.44984 18.1797 5.56984 17.0997 5.56984H16.5897V8.19984H14.9697V0.839844H14.9797ZM17.1797 4.24984C17.8197 4.24984 18.1897 4.21984 18.4597 4.06984C18.7497 3.90984 18.9197 3.62984 18.9197 3.26984C18.9197 2.84984 18.7397 2.55984 18.3997 2.40984C18.1097 2.27984 17.7097 2.25984 17.1397 2.25984H16.5897V4.25984H17.1797V4.24984Z" fill="#231F20"/>
<path d="M21.5703 0.839844H23.1903V8.19984H21.5703V0.839844Z" fill="#231F20"/>
<path d="M24.6299 0.839722H26.6899C27.9999 0.839722 29.0199 1.04972 29.7799 1.57972C30.6799 2.20972 31.1899 3.24972 31.1899 4.50972C31.1899 5.66972 30.7499 6.64972 29.9699 7.28972C29.2199 7.89972 28.1599 8.18972 26.6199 8.18972H24.6299V0.839722ZM26.6999 6.77972C27.7499 6.77972 28.4199 6.59972 28.8699 6.19972C29.3099 5.81972 29.5799 5.22972 29.5799 4.49972C29.5799 3.72972 29.2799 3.07972 28.7299 2.68972C28.2099 2.31972 27.5099 2.23972 26.6899 2.23972H26.2499V6.76972H26.6999V6.77972Z" fill="#231F20"/>
<path d="M41.1702 3.78974L40.0102 6.50974L41.6602 8.17974V8.19974H39.7502L39.2002 7.64974C38.7602 8.04974 38.1002 8.30974 37.1802 8.30974C35.3202 8.30974 34.4902 7.19974 34.4902 6.14974C34.4902 5.28974 35.0602 4.64974 35.8502 4.24974L35.7602 4.15974C35.3502 3.73974 35.0302 3.21974 35.0302 2.59974C35.0302 1.54974 35.9202 0.729736 37.2002 0.729736C38.4802 0.729736 39.3602 1.57974 39.3602 2.59974C39.3602 3.34974 38.8702 3.92974 38.3102 4.29974L38.0202 4.48974L38.9402 5.44974L39.6002 3.79974H41.1702V3.78974ZM36.6202 5.22974C36.1902 5.42974 36.0402 5.79974 36.0402 6.07974C36.0402 6.49974 36.3702 6.98974 37.2202 6.98974C37.6902 6.98974 37.9902 6.83974 38.1902 6.59974L36.7602 5.15974L36.6202 5.22974ZM37.3902 3.35974C37.6702 3.14974 37.8402 2.93974 37.8402 2.65974C37.8402 2.28974 37.5702 2.03974 37.1902 2.03974C36.7802 2.03974 36.5502 2.30974 36.5502 2.64974C36.5502 2.87974 36.6602 3.08974 36.9202 3.34974L37.1202 3.55974L37.3902 3.35974Z" fill="#231F20"/>
<path d="M46.9902 0.839722H48.5502L51.5402 8.19972H49.8102L49.2202 6.65972H46.2502L45.6502 8.19972H43.9902L46.9902 0.839722ZM46.7602 5.37972H48.7402L48.4402 4.55972C48.2302 3.97972 47.9602 3.24972 47.7702 2.68972H47.7502C47.5602 3.24972 47.2902 3.97972 47.0602 4.59972L46.7602 5.37972Z" fill="#231F20"/>
<path d="M57.8404 7.81949C57.2104 8.15949 56.4204 8.30949 55.6904 8.30949C53.3204 8.30949 51.6904 6.66949 51.6904 4.52949C51.6904 2.38949 53.3304 0.729492 55.6904 0.729492C56.4304 0.729492 57.1504 0.899491 57.7304 1.18949V2.82949C57.1904 2.45949 56.4504 2.18949 55.7004 2.18949C54.2804 2.18949 53.3004 3.18949 53.3004 4.51949C53.3004 5.84949 54.2404 6.86949 55.7604 6.86949C56.5204 6.86949 57.2304 6.60949 57.8404 6.18949V7.81949Z" fill="#231F20"/>
<path d="M64.86 7.81974C64.23 8.15974 63.44 8.30974 62.71 8.30974C60.34 8.30974 58.71 6.66974 58.71 4.52974C58.71 2.38974 60.35 0.729736 62.71 0.729736C63.45 0.729736 64.17 0.899735 64.75 1.18974V2.82974C64.21 2.45974 63.47 2.18974 62.72 2.18974C61.3 2.18974 60.32 3.18974 60.32 4.51974C60.32 5.84974 61.26 6.86974 62.78 6.86974C63.54 6.86974 64.25 6.60974 64.86 6.18974V7.81974Z" fill="#231F20"/>
<path d="M72.3797 4.62984C72.3797 5.73984 72.2297 6.53984 71.8097 7.12984C71.2897 7.86984 70.3497 8.30984 69.1697 8.30984C67.9897 8.30984 67.0397 7.86984 66.5197 7.10984C66.1197 6.51984 65.9697 5.71984 65.9697 4.66984V0.839844H67.5897V4.60984C67.5897 5.38984 67.6597 5.86984 67.8697 6.21984C68.0897 6.57984 68.5197 6.85984 69.2097 6.85984C69.8497 6.85984 70.2697 6.62984 70.5097 6.24984C70.7297 5.89984 70.8197 5.39984 70.8197 4.61984V0.839844H72.3797V4.62984Z" fill="#231F20"/>
<path d="M73.7598 0.839844H76.0698C76.9398 0.839844 77.7698 0.959845 78.3598 1.32985C78.8998 1.66985 79.2398 2.20984 79.2398 3.05984C79.2398 3.99985 78.7198 4.77984 77.7498 5.08984L79.8198 8.19984H77.9598L76.0998 5.28984H75.3798V8.19984H73.7598V0.839844ZM76.1898 4.07985C76.6298 4.07985 76.9598 4.02984 77.2098 3.90984C77.4798 3.76984 77.6298 3.51984 77.6298 3.16984C77.6298 2.81984 77.5098 2.59984 77.2098 2.44984C76.9598 2.31984 76.5598 2.25984 75.9998 2.25984H75.3798V4.08984H76.1898V4.07985Z" fill="#231F20"/>
<path d="M83.0898 0.839722H84.6498L87.6398 8.19972H85.9099L85.3199 6.65972H82.3499L81.7498 8.19972H80.0898L83.0898 0.839722ZM82.8499 5.37972H84.8298L84.5298 4.55972C84.3198 3.97972 84.0498 3.24972 83.8598 2.68972H83.8398C83.6498 3.24972 83.3798 3.97972 83.1498 4.59972L82.8499 5.37972Z" fill="#231F20"/>
<path d="M89.3702 2.24972H86.9902V0.839722H93.3602V2.24972H90.9802V8.18972H89.3602V2.24972H89.3702Z" fill="#231F20"/>
<path d="M94.29 0.839722H98.83V2.24972H95.9V3.68972H98.42V5.02972H95.9V6.77972H98.94V8.18972H94.29V0.839722Z" fill="#231F20"/>
<path d="M102.61 0.839844H104.75C105.75 0.839844 106.49 0.979842 106.99 1.25984C107.56 1.56984 107.82 2.06984 107.82 2.67984C107.82 3.46984 107.38 3.92984 106.71 4.16984V4.18984C107.65 4.45984 108.11 5.06984 108.11 5.97984C108.11 6.88984 107.64 7.55984 106.71 7.90984C106.2 8.09984 105.57 8.18984 104.79 8.18984H102.61V0.839844ZM105.07 3.88984C105.73 3.88984 106.2 3.64984 106.2 3.04984C106.2 2.81984 106.13 2.55984 105.85 2.40984C105.59 2.25984 105.14 2.22984 104.71 2.22984H104.21V3.89985H105.07V3.88984ZM104.82 6.80984C105.4 6.80984 105.8 6.76984 106.04 6.66984C106.39 6.52984 106.5 6.24984 106.5 5.92984C106.5 5.28984 106.05 4.98985 105.19 4.98985H104.22V6.80984H104.82Z" fill="#231F20"/>
<path d="M111.47 0.839844H113.03L116.02 8.19984H114.29L113.7 6.65984H110.73L110.13 8.19984H108.47L111.47 0.839844ZM111.23 5.37984H113.21L112.91 4.55984C112.7 3.97985 112.43 3.24984 112.24 2.68984H112.22C112.03 3.24984 111.76 3.97984 111.53 4.59984L111.23 5.37984Z" fill="#231F20"/>
<path d="M117.75 2.24972H115.37V0.839722H121.74V2.24972H119.36V8.18972H117.74V2.24972H117.75Z" fill="#231F20"/>
<path d="M124.57 2.24984H122.19V0.839844H128.56V2.24984H126.18V8.18984H124.56V2.24984H124.57Z" fill="#231F20"/>
<path d="M129.49 0.839722H134.03V2.24972H131.1V3.68972H133.62V5.02972H131.1V6.77972H134.14V8.18972H129.49V0.839722Z" fill="#231F20"/>
<path d="M135.29 0.839722H137.6C138.47 0.839722 139.3 0.959723 139.89 1.32972C140.43 1.66972 140.77 2.20972 140.77 3.05972C140.77 3.99972 140.25 4.77972 139.28 5.08972L141.35 8.19972H139.49L137.63 5.28972H136.91V8.19972H135.29V0.839722ZM137.72 4.07972C138.16 4.07972 138.49 4.02972 138.74 3.90972C139.01 3.76972 139.16 3.51972 139.16 3.16972C139.16 2.81972 139.04 2.59972 138.74 2.44972C138.49 2.31972 138.09 2.25972 137.53 2.25972H136.91V4.08972H137.72V4.07972Z" fill="#231F20"/>
<path d="M143.611 4.86984L140.771 0.839844H142.65L143.54 2.16984C143.82 2.58984 144.141 3.06984 144.421 3.51984H144.441C144.721 3.06984 145.021 2.61984 145.321 2.15984L146.201 0.839844H148.021L145.211 4.85984V8.18984H143.59V4.86984H143.611Z" fill="#231F20"/>
<path d="M151.19 0.839844H153.25C154.56 0.839844 155.58 1.04985 156.34 1.57985C157.24 2.20985 157.75 3.24984 157.75 4.50984C157.75 5.66984 157.31 6.64984 156.53 7.28984C155.78 7.89984 154.72 8.18984 153.18 8.18984H151.19V0.839844ZM153.25 6.77984C154.3 6.77984 154.97 6.59984 155.42 6.19984C155.86 5.81984 156.13 5.22984 156.13 4.49984C156.13 3.72984 155.83 3.07984 155.28 2.68984C154.76 2.31984 154.06 2.23985 153.24 2.23985H152.8V6.76984H153.25V6.77984Z" fill="#231F20"/>
<path d="M158.85 0.839844H160.47V8.19984H158.85V0.839844Z" fill="#231F20"/>
<path d="M164.25 0.839722H165.81L168.8 8.19972H167.07L166.48 6.65972H163.51L162.91 8.19972H161.25L164.25 0.839722ZM164.02 5.37972H166L165.7 4.55972C165.49 3.97972 165.22 3.24972 165.03 2.68972H165.01C164.82 3.24972 164.55 3.97972 164.32 4.59972L164.02 5.37972Z" fill="#231F20"/>
<path d="M175.45 7.69949C174.79 8.06949 173.87 8.30949 172.95 8.30949C170.59 8.30949 168.94 6.70949 168.94 4.54949C168.94 2.38949 170.62 0.729492 172.96 0.729492C173.86 0.729492 174.65 0.969494 175.22 1.28949V2.91949C174.6 2.48949 173.8 2.18949 172.99 2.18949C171.51 2.18949 170.55 3.23949 170.55 4.54949C170.55 5.85949 171.46 6.90949 172.98 6.90949C173.32 6.90949 173.64 6.84949 173.88 6.74949V5.63949H172.6V4.29949H175.45V7.69949Z" fill="#231F20"/>
<path d="M179.77 5.23008C179.29 4.59008 178.85 3.97008 178.39 3.33008H178.37C178.38 4.04008 178.39 4.75008 178.39 5.46008V8.19007H176.84V0.830078H178.36L180.57 3.80008C181.05 4.44008 181.49 5.06008 181.95 5.70008H181.97C181.96 4.99008 181.95 4.28008 181.95 3.57008V0.840076H183.51V8.20008H181.99L179.77 5.23008Z" fill="#231F20"/>
<path d="M184.62 4.51974C184.62 2.37974 186.28 0.729736 188.46 0.729736C190.64 0.729736 192.3 2.37974 192.3 4.51974C192.3 6.65974 190.64 8.30974 188.46 8.30974C186.28 8.30974 184.62 6.65974 184.62 4.51974ZM190.69 4.51974C190.69 3.21974 189.73 2.18974 188.46 2.18974C187.19 2.18974 186.23 3.21974 186.23 4.51974C186.23 5.81974 187.19 6.84974 188.46 6.84974C189.73 6.83974 190.69 5.81974 190.69 4.51974Z" fill="#231F20"/>
<path d="M193.33 6.12973C194.11 6.65973 195.1 6.88972 195.68 6.88972C196.26 6.88972 196.71 6.65973 196.71 6.10973C196.71 5.42973 196.02 5.36973 195.07 5.05973C194.05 4.71973 193.14 4.22973 193.14 2.94973C193.14 1.57973 194.18 0.719727 195.72 0.719727C196.44 0.719727 197.33 0.899725 197.97 1.24973V2.84972C197.19 2.35972 196.28 2.13972 195.71 2.13972C195.14 2.13972 194.77 2.33973 194.77 2.82973C194.77 3.47973 195.45 3.52973 196.33 3.82973C197.44 4.19973 198.33 4.70972 198.33 6.00972C198.33 7.43972 197.24 8.30973 195.66 8.30973C194.93 8.30973 194.02 8.12973 193.33 7.76973V6.12973Z" fill="#231F20"/>
<path d="M199.38 0.839722H201V8.19972H199.38V0.839722Z" fill="#231F20"/>
<path d="M202.35 6.12973C203.13 6.65973 204.12 6.88972 204.7 6.88972C205.28 6.88972 205.73 6.65973 205.73 6.10973C205.73 5.42973 205.04 5.36973 204.09 5.05973C203.07 4.71973 202.16 4.22973 202.16 2.94973C202.16 1.57973 203.2 0.719727 204.74 0.719727C205.46 0.719727 206.35 0.899725 206.99 1.24973V2.84972C206.21 2.35972 205.3 2.13972 204.73 2.13972C204.16 2.13972 203.79 2.33973 203.79 2.82973C203.79 3.47973 204.47 3.52973 205.35 3.82973C206.46 4.19973 207.35 4.70972 207.35 6.00972C207.35 7.43972 206.26 8.30973 204.68 8.30973C203.95 8.30973 203.04 8.12973 202.35 7.76973V6.12973Z" fill="#231F20"/>
</svg>
