<svg width="24" height="16" viewBox="0 0 24 16" fill="none" xmlns="http://www.w3.org/2000/svg">
<path d="M23.3114 3.02143C22.8659 1.38705 22.0331 0.759561 20.4949 0.530942C19.6144 0.409336 15.371 0.258545 11.9975 0.258545C8.62402 0.258545 4.38593 0.409336 3.50012 0.530942C1.9672 0.759561 1.12913 1.39191 0.68888 3.02143C0.540361 3.56622 0.333496 6.57231 0.333496 7.71541V7.96835C0.333496 9.11631 0.540361 12.1175 0.68888 12.6672C1.12913 14.2967 1.9672 14.9291 3.50012 15.1528C4.38063 15.2744 8.63462 15.4252 12.0081 15.4252H11.9922C15.3657 15.4252 19.6144 15.2744 20.4949 15.1528C22.0331 14.9291 22.8659 14.2967 23.3114 12.6672C23.46 12.1175 23.6668 9.11631 23.6668 7.96835V7.71541C23.6668 6.57231 23.46 3.56622 23.3114 3.02143ZM9.20218 10.5853V5.10332L14.7928 7.78351L9.20218 10.5902V10.5853Z" fill="black"/>
</svg>
